<svg width="51" height="51" viewBox="0 0 51 51" fill="none" xmlns="http://www.w3.org/2000/svg">
<path d="M51 23C51 35.7025 40.7025 46 28 46C15.2975 46 5 35.7025 5 23C5 10.2975 15.2975 0 28 0C40.7025 0 51 10.2975 51 23Z" fill="#4D4D4D"/>
<path d="M42 23C42 30.732 35.732 37 28 37C20.268 37 14 30.732 14 23C14 15.268 20.268 9 28 9C35.732 9 42 15.268 42 23Z" fill="#8EF9B9"/>
<circle cx="5" cy="46" r="5" fill="#4D4D4D"/>
<path d="M18.5 24.5V23L19 21L19.5 19.5L20.5 17.5L22.5 15.5L25 14L27.5 13.5L30 13.75L32.5 14" stroke="#7AD19D" stroke-width="3"/>
</svg>
